<?xml version="1.0" encoding="UTF-8" standalone="no"?>
<!-- Created with Inkscape (http://www.inkscape.org/) -->
<svg
   xmlns:ns0="http://www.iki.fi/pav/software/textext/"
   xmlns:dc="http://purl.org/dc/elements/1.1/"
   xmlns:cc="http://creativecommons.org/ns#"
   xmlns:rdf="http://www.w3.org/1999/02/22-rdf-syntax-ns#"
   xmlns:svg="http://www.w3.org/2000/svg"
   xmlns="http://www.w3.org/2000/svg"
   xmlns:xlink="http://www.w3.org/1999/xlink"
   xmlns:sodipodi="http://sodipodi.sourceforge.net/DTD/sodipodi-0.dtd"
   xmlns:inkscape="http://www.inkscape.org/namespaces/inkscape"
   width="153"
   height="55"
   id="svg2"
   sodipodi:version="0.32"
   inkscape:version="0.46"
   sodipodi:docname="logo.svg"
   version="1.0"
   inkscape:output_extension="org.inkscape.output.svg.inkscape"
   inkscape:export-filename="/mnt/eden/cschafer/Documents/Python/smcdss/logo.png"
   inkscape:export-xdpi="90"
   inkscape:export-ydpi="90">
  <sodipodi:namedview
     id="base"
     pagecolor="#ffffff"
     bordercolor="#666666"
     borderopacity="1.0"
     inkscape:pageopacity="0.0"
     inkscape:pageshadow="2"
     inkscape:zoom="2.8"
     inkscape:cx="183.67276"
     inkscape:cy="50.388758"
     inkscape:document-units="px"
     inkscape:current-layer="layer1"
     showgrid="false"
     inkscape:window-width="1280"
     inkscape:window-height="948"
     inkscape:window-x="0"
     inkscape:window-y="0"
     units="px" />
  <defs
     id="defs4">
    <inkscape:perspective
       sodipodi:type="inkscape:persp3d"
       inkscape:vp_x="0 : 526.18109 : 1"
       inkscape:vp_y="0 : 1000 : 0"
       inkscape:vp_z="744.09448 : 526.18109 : 1"
       inkscape:persp3d-origin="372.04724 : 350.78739 : 1"
       id="perspective10" />
  </defs>
  <metadata
     id="metadata7">
    <rdf:RDF>
      <cc:Work
         rdf:about="">
        <dc:format>image/svg+xml</dc:format>
        <dc:type
           rdf:resource="http://purl.org/dc/dcmitype/StillImage" />
      </cc:Work>
    </rdf:RDF>
  </metadata>
  <g
     inkscape:label="Calque 1"
     inkscape:groupmode="layer"
     id="layer1">
    <g
       id="g2510"
       ns0:preamble=""
       ns0:text="$\\lbrace0,1\\rbrace^d$"
       transform="matrix(4.3625304,0,0,4.3625304,-961.64211,-547.41878)"
       style="fill:#0000ff">
      <defs
         id="defs2512">
        <g
           id="g2514">
          <symbol
             id="textext-88a01873-0"
             overflow="visible"
             style="overflow:visible">
            <path
               id="path2517"
               d=""
               style="stroke:none" />
          </symbol>
          <symbol
             id="textext-88a01873-1"
             overflow="visible"
             style="overflow:visible">
            <path
               id="path2520"
               d="M 2.828125,-5.609375 C 2.828125,-6.328125 2.828125,-6.546875 3.0625,-6.796875 C 3.234375,-6.984375 3.46875,-7.21875 4.171875,-7.25 C 4.21875,-7.265625 4.25,-7.3125 4.25,-7.359375 C 4.25,-7.484375 4.171875,-7.484375 4.0625,-7.484375 C 3.0625,-7.484375 2.171875,-6.96875 2.15625,-6.25 L 2.15625,-4.421875 C 2.15625,-3.484375 2.15625,-3.328125 1.890625,-3.046875 C 1.75,-2.90625 1.484375,-2.640625 0.859375,-2.609375 C 0.78125,-2.609375 0.71875,-2.59375 0.71875,-2.5 C 0.71875,-2.390625 0.78125,-2.390625 0.875,-2.375 C 1.3125,-2.359375 2.15625,-2.140625 2.15625,-1.140625 L 2.15625,0.828125 C 2.15625,1.40625 2.15625,1.75 2.671875,2.109375 C 3.09375,2.40625 3.75,2.5 4.0625,2.5 C 4.171875,2.5 4.25,2.5 4.25,2.375 C 4.25,2.28125 4.203125,2.28125 4.09375,2.265625 C 3.3125,2.21875 2.9375,1.78125 2.84375,1.421875 C 2.828125,1.3125 2.828125,1.28125 2.828125,0.9375 L 2.828125,-0.5625 C 2.828125,-0.859375 2.828125,-1.359375 2.796875,-1.46875 C 2.671875,-2.125 2.03125,-2.375 1.640625,-2.5 C 2.828125,-2.828125 2.828125,-3.53125 2.828125,-3.8125 L 2.828125,-5.609375 z"
               style="stroke:none" />
          </symbol>
          <symbol
             id="textext-88a01873-2"
             overflow="visible"
             style="overflow:visible">
            <path
               id="path2523"
               d="M 2.828125,-5.8125 C 2.828125,-6.390625 2.828125,-6.734375 2.296875,-7.09375 C 1.875,-7.390625 1.234375,-7.484375 0.921875,-7.484375 C 0.8125,-7.484375 0.71875,-7.484375 0.71875,-7.359375 C 0.71875,-7.265625 0.78125,-7.265625 0.875,-7.25 C 1.671875,-7.203125 2.03125,-6.765625 2.125,-6.40625 C 2.15625,-6.296875 2.15625,-6.265625 2.15625,-5.921875 L 2.15625,-4.421875 C 2.15625,-4.125 2.15625,-3.625 2.171875,-3.515625 C 2.296875,-2.859375 2.9375,-2.609375 3.328125,-2.5 C 2.15625,-2.15625 2.15625,-1.453125 2.15625,-1.171875 L 2.15625,0.625 C 2.15625,1.34375 2.15625,1.5625 1.90625,1.8125 C 1.734375,2 1.5,2.234375 0.8125,2.265625 C 0.75,2.28125 0.71875,2.328125 0.71875,2.375 C 0.71875,2.5 0.8125,2.5 0.921875,2.5 C 1.90625,2.5 2.796875,1.984375 2.828125,1.265625 L 2.828125,-0.5625 C 2.828125,-1.5 2.828125,-1.65625 3.078125,-1.9375 C 3.21875,-2.078125 3.484375,-2.34375 4.109375,-2.375 C 4.1875,-2.375 4.25,-2.390625 4.25,-2.5 C 4.25,-2.59375 4.203125,-2.59375 4.09375,-2.609375 C 3.671875,-2.625 2.828125,-2.84375 2.828125,-3.84375 L 2.828125,-5.8125 z"
               style="stroke:none" />
          </symbol>
          <symbol
             id="textext-88a01873-3"
             overflow="visible"
             style="overflow:visible">
            <path
               id="path2526"
               d=""
               style="stroke:none" />
          </symbol>
          <symbol
             id="textext-88a01873-4"
             overflow="visible"
             style="overflow:visible">
            <path
               id="path2529"
               d="M 4.578125,-3.1875 C 4.578125,-3.984375 4.53125,-4.78125 4.1875,-5.515625 C 3.734375,-6.484375 2.90625,-6.640625 2.5,-6.640625 C 1.890625,-6.640625 1.171875,-6.375 0.75,-5.453125 C 0.4375,-4.765625 0.390625,-3.984375 0.390625,-3.1875 C 0.390625,-2.4375 0.421875,-1.546875 0.84375,-0.78125 C 1.265625,0.015625 2,0.21875 2.484375,0.21875 C 3.015625,0.21875 3.78125,0.015625 4.21875,-0.9375 C 4.53125,-1.625 4.578125,-2.40625 4.578125,-3.1875 z M 2.484375,0 C 2.09375,0 1.5,-0.25 1.328125,-1.203125 C 1.21875,-1.796875 1.21875,-2.71875 1.21875,-3.3125 C 1.21875,-3.953125 1.21875,-4.609375 1.296875,-5.140625 C 1.484375,-6.328125 2.234375,-6.421875 2.484375,-6.421875 C 2.8125,-6.421875 3.46875,-6.234375 3.65625,-5.25 C 3.765625,-4.6875 3.765625,-3.9375 3.765625,-3.3125 C 3.765625,-2.5625 3.765625,-1.890625 3.65625,-1.25 C 3.5,-0.296875 2.9375,0 2.484375,0 z"
               style="stroke:none" />
          </symbol>
          <symbol
             id="textext-88a01873-5"
             overflow="visible"
             style="overflow:visible">
            <path
               id="path2532"
               d="M 2.9375,-6.375 C 2.9375,-6.625 2.9375,-6.640625 2.703125,-6.640625 C 2.078125,-6 1.203125,-6 0.890625,-6 L 0.890625,-5.6875 C 1.09375,-5.6875 1.671875,-5.6875 2.1875,-5.953125 L 2.1875,-0.78125 C 2.1875,-0.421875 2.15625,-0.3125 1.265625,-0.3125 L 0.953125,-0.3125 L 0.953125,0 C 1.296875,-0.03125 2.15625,-0.03125 2.5625,-0.03125 C 2.953125,-0.03125 3.828125,-0.03125 4.171875,0 L 4.171875,-0.3125 L 3.859375,-0.3125 C 2.953125,-0.3125 2.9375,-0.421875 2.9375,-0.78125 L 2.9375,-6.375 z"
               style="stroke:none" />
          </symbol>
          <symbol
             id="textext-88a01873-6"
             overflow="visible"
             style="overflow:visible">
            <path
               id="path2535"
               d=""
               style="stroke:none" />
          </symbol>
          <symbol
             id="textext-88a01873-7"
             overflow="visible"
             style="overflow:visible">
            <path
               id="path2538"
               d="M 2.03125,-0.015625 C 2.03125,-0.671875 1.78125,-1.0625 1.390625,-1.0625 C 1.0625,-1.0625 0.859375,-0.8125 0.859375,-0.53125 C 0.859375,-0.265625 1.0625,0 1.390625,0 C 1.5,0 1.640625,-0.046875 1.734375,-0.125 C 1.765625,-0.15625 1.78125,-0.15625 1.78125,-0.15625 C 1.796875,-0.15625 1.796875,-0.15625 1.796875,-0.015625 C 1.796875,0.734375 1.453125,1.328125 1.125,1.65625 C 1.015625,1.765625 1.015625,1.78125 1.015625,1.8125 C 1.015625,1.890625 1.0625,1.921875 1.109375,1.921875 C 1.21875,1.921875 2.03125,1.15625 2.03125,-0.015625 z"
               style="stroke:none" />
          </symbol>
          <symbol
             id="textext-88a01873-8"
             overflow="visible"
             style="overflow:visible">
            <path
               id="path2541"
               d=""
               style="stroke:none" />
          </symbol>
          <symbol
             id="textext-88a01873-9"
             overflow="visible"
             style="overflow:visible">
            <path
               id="path2544"
               d="M 3.984375,-4.625 C 3.984375,-4.640625 4,-4.734375 4,-4.734375 C 4,-4.78125 3.984375,-4.84375 3.890625,-4.84375 C 3.75,-4.84375 3.171875,-4.78125 3,-4.765625 C 2.953125,-4.765625 2.84375,-4.75 2.84375,-4.609375 C 2.84375,-4.515625 2.953125,-4.515625 3.03125,-4.515625 C 3.359375,-4.515625 3.359375,-4.453125 3.359375,-4.40625 C 3.359375,-4.359375 3.359375,-4.3125 3.34375,-4.25 L 2.9375,-2.65625 C 2.796875,-2.890625 2.5625,-3.078125 2.21875,-3.078125 C 1.328125,-3.078125 0.421875,-2.09375 0.421875,-1.09375 C 0.421875,-0.40625 0.875,0.0625 1.484375,0.0625 C 1.859375,0.0625 2.1875,-0.140625 2.46875,-0.421875 C 2.59375,0 3,0.0625 3.1875,0.0625 C 3.4375,0.0625 3.609375,-0.078125 3.734375,-0.296875 C 3.890625,-0.578125 3.984375,-0.96875 3.984375,-1 C 3.984375,-1.09375 3.890625,-1.09375 3.875,-1.09375 C 3.765625,-1.09375 3.765625,-1.0625 3.71875,-0.875 C 3.625,-0.53125 3.5,-0.125 3.203125,-0.125 C 3.03125,-0.125 2.96875,-0.28125 2.96875,-0.46875 C 2.96875,-0.59375 2.984375,-0.65625 3.015625,-0.75 L 3.984375,-4.625 z M 2.5,-0.875 C 2.453125,-0.671875 2.296875,-0.53125 2.140625,-0.40625 C 2.078125,-0.34375 1.796875,-0.125 1.5,-0.125 C 1.234375,-0.125 0.984375,-0.3125 0.984375,-0.796875 C 0.984375,-1.171875 1.1875,-1.9375 1.359375,-2.21875 C 1.671875,-2.78125 2.03125,-2.875 2.21875,-2.875 C 2.703125,-2.875 2.84375,-2.34375 2.84375,-2.265625 C 2.84375,-2.25 2.828125,-2.1875 2.828125,-2.171875 L 2.5,-0.875 z"
               style="stroke:none" />
          </symbol>
        </g>
      </defs>
      <g
         id="textext-88a01873-10"
         style="fill:#0000ff">
        <g
           id="g2547"
           style="fill:#0000ff;fill-opacity:1">
          <use
             id="use2549"
             y="134.765"
             x="223.43201"
             xlink:href="#textext-88a01873-1"
             width="744.09448"
             height="1052.3622"
             style="fill:#0000ff" />
        </g>
        <g
           id="g2551"
           style="fill:#0000ff;fill-opacity:1">
          <use
             id="use2553"
             y="134.765"
             x="228.41299"
             xlink:href="#textext-88a01873-4"
             width="744.09448"
             height="1052.3622"
             style="fill:#0000ff" />
        </g>
        <g
           id="g2555"
           style="fill:#0000ff;fill-opacity:1">
          <use
             id="use2557"
             y="134.765"
             x="233.395"
             xlink:href="#textext-88a01873-7"
             width="744.09448"
             height="1052.3622"
             style="fill:#0000ff" />
        </g>
        <g
           id="g2559"
           style="fill:#0000ff;fill-opacity:1">
          <use
             id="use2561"
             y="134.765"
             x="237.823"
             xlink:href="#textext-88a01873-5"
             width="744.09448"
             height="1052.3622"
             style="fill:#0000ff" />
        </g>
        <g
           id="g2563"
           style="fill:#0000ff;fill-opacity:1">
          <use
             id="use2565"
             y="134.765"
             x="242.804"
             xlink:href="#textext-88a01873-2"
             width="744.09448"
             height="1052.3622"
             style="fill:#0000ff" />
        </g>
        <g
           id="g2567"
           style="fill:#0000ff;fill-opacity:1">
          <use
             id="use2569"
             y="131.14999"
             x="247.785"
             xlink:href="#textext-88a01873-9"
             width="744.09448"
             height="1052.3622"
             style="fill:#0000ff" />
        </g>
      </g>
    </g>
  </g>
</svg>
